<?xml version="1.0" encoding="UTF-8"?><svg id="Layer_1" xmlns="http://www.w3.org/2000/svg" viewBox="0 0 404.44 404.44"><defs><style>.cls-1{fill:#efe5c3;}</style></defs><path class="cls-1" d="M112.35,0C50.31,0,0,50.31,0,112.35v179.75c0,62.04,50.31,112.35,112.35,112.35h179.75c62.04,0,112.35-50.31,112.35-112.35V112.35c0-62.04-50.31-112.35-112.35-112.35H112.35ZM337.04,44.94c12.4,0,22.47,10.07,22.47,22.47s-10.07,22.47-22.47,22.47-22.47-10.07-22.47-22.47,10.07-22.47,22.47-22.47ZM202.22,89.88c62.04,0,112.35,50.31,112.35,112.35s-50.31,112.35-112.35,112.35-112.35-50.31-112.35-112.35,50.31-112.35,112.35-112.35ZM202.22,134.81c-37.23,0-67.41,30.18-67.41,67.41s30.18,67.41,67.41,67.41,67.41-30.18,67.41-67.41-30.18-67.41-67.41-67.41Z"/></svg>