<?xml version="1.0" encoding="UTF-8"?><svg id="Layer_1" xmlns="http://www.w3.org/2000/svg" viewBox="0 0 468.38 476.67"><defs><style>.cls-1{fill:#efe5c3;stroke:#efe5c3;stroke-miterlimit:10;stroke-width:1.56px;}</style></defs><path class="cls-1" d="M208.12,33.53c-5.06-10.55-10.11-21.08-15.17-31.63,22.67-2.1,58.48-2.51,98.95,10.36,66.79,21.24,136.05,75.41,163.63,160.1,4.01,12.34,38.81,125.5-31.96,217.01-73.45,94.98-216.26,109.33-307.9,54.94-71.78-42.59-99.11-119.6-102.22-128.76C2.3,282.77.51,253.73.81,234.45c11.2,3.73,22.39,7.48,33.6,11.22.95,19.03,5.13,52.38,24.27,88.07,8.25,15.37,37.98,66.1,99.45,91.82,61.9,25.89,144.48,21.64,205.62-30.19,81.65-69.2,67.77-174.68,66.43-183.6-14.39-96.38-96.69-159.53-169.38-174.78-21.57-4.53-40.12-4.39-52.67-3.49v.02Z"/><path class="cls-1" d="M405.88,216.48c9.94,95-55.63,194.09-156.77,204-96.38,9.45-186.94-65.87-194.57-168.33,96.35,32.9,192.7,65.79,289.05,98.69-44.1-100.89-88.18-201.79-132.28-302.68,100.01-2.01,184.58,72.84,194.57,168.33Z"/><path class="cls-1" d="M229.81,125.93c-5.46-29.91-17.94-52.1-26.89-65.37-22.67,11.39-62.79,35.29-97.53,80.29-30.5,39.49-43.68,76.39-49.84,100.02,11.67,3.58,23.36,7.14,35.03,10.72.14-4.42.53-9.9,1.59-16.21.58-3.42,3.11-17.63,14.04-39.85,5.2-10.55,13.06-24.49,24.76-39.69,45.73,22.03,85.26,26.81,97.75,10.72,6.91-8.9,4.39-22.72,1.12-40.64l-.02.02ZM200.31,145.94c-4.43,3.39-12.31,1.6-28.09-1.98-9.76-2.21-17.65-4.82-23.05-6.8,3.72-5.88,10.99-15.64,23.4-23.59,9.27-5.94,18.08-8.73,24.13-10.11,8.75,19.53,10.77,36.97,3.61,42.46l-.02.02Z"/><polygon class="cls-1" points="254.65 184.41 164.07 279.45 257.65 313.39 265.13 299.98 213.22 280.34 228.85 261.54 265.73 283.7 278.19 270.54 245.51 250.01 255.83 236.61 278.94 262.13 293.97 254.35 254.65 184.41"/><path class="cls-1" d="M134.64,169.16c13.85,6.6,32.72,13.85,55.89,18.05,16.56,3,31.39,3.73,43.65,3.5-9.18,7.73-18.36,15.47-27.54,23.2-4.61.86-11.03,1.54-18.61.84-7.41-.68-13.46-2.47-17.79-4.11-6.16,11.79-12.32,23.61-18.5,35.4,8.42,1.99,16.84,3.97,25.24,5.96-7.38,8.03-14.75,16.07-22.13,24.1-17.65-6.19-35.29-12.4-52.95-18.59.12-4.03.47-8.51,1.2-13.34.98-6.52,2.44-12.28,3.98-17.16,8.56,2.8,17.13,5.62,25.69,8.42l17.97-27.73c-4.79-.39-10.69-1.28-17.24-3.17-6.3-1.84-11.58-4.14-15.73-6.3,2.3-4.99,5.06-10.36,8.36-15.97,2.83-4.81,5.71-9.17,8.51-13.09v-.02Z"/><path class="cls-1" d="M13.72,198.19c1.82-6.41,4.23-13.51,7.47-21.07,4.12-9.62,8.68-17.83,12.99-24.62,4.05,2.82,8.08,5.62,12.12,8.43-1.45,2.02-2.94,4.31-4.42,6.83-1.46,2.52-2.71,4.95-3.75,7.2,4.12,2.41,8.34,4.98,12.64,7.7,5.23,3.31,10.21,6.64,14.94,9.93-.98,1.87-1.95,3.84-2.89,5.94-1.63,3.63-2.94,7.1-4,10.33-3.59-3.78-8.37-8.15-14.49-12.32-4.67-3.17-9.12-5.57-13.04-7.36-.95,2.05-1.9,4.22-2.8,6.47-1.4,3.45-2.61,6.78-3.66,9.97l-11.11-7.48v.03Z"/><path class="cls-1" d="M45.43,135.69c12.57,8.03,25.15,16.06,37.7,24.09l7.22-10.35c-4.95-3.38-9.9-6.75-14.84-10.13,2.55-3.98,5.1-7.95,7.66-11.93,5.07,3.52,10.15,7.03,15.22,10.53,3.8-5.45,4.99-5.68,8.81-11.13-12.11-9.06-24.21-18.11-36.33-27.17-.65.76-1.32,1.56-1.98,2.37-2.89,3.56-5.37,7.11-7.52,10.55,4.95,3.45,9.9,6.89,14.83,10.35-2.63,3.95-5.26,7.89-7.89,11.84-4.99-3.56-9.99-7.13-14.97-10.67-1.28,1.85-2.55,3.7-3.81,5.57-1.38,2.02-2.74,4.05-4.09,6.05v.03Z"/><path class="cls-1" d="M122.34,109.84c4.61-4.73,9.79-9.6,15.62-14.44,2.49-2.07,4.96-4.03,7.39-5.87l-6.96-6.54c-4.31,3.77-8.62,7.53-12.93,11.3-1.91-2.07-3.81-4.14-5.73-6.21,3.17-3.36,6.36-6.72,9.54-10.1-2.01-1.85-4-3.69-6.01-5.54-3.24,3.08-6.47,6.18-9.73,9.26-2.24-2.13-4.47-4.26-6.71-6.4,4.45-4.28,8.9-8.56,13.37-12.84-1.88-2.18-3.78-4.34-5.66-6.52-3.75,2.37-7.89,5.35-12.15,9.07-6.07,5.31-10.69,10.66-14.13,15.26,11.36,9.85,22.72,19.68,34.08,29.53v.02Z"/></svg>