<?xml version="1.0" encoding="UTF-8"?><svg id="a" xmlns="http://www.w3.org/2000/svg" viewBox="0 0 301.01 310.08"><defs><style>.b{fill:#fff;stroke:#fff;stroke-miterlimit:10;}</style></defs><path class="b" d="M133.75,25.28c-3.25-6.78-6.5-13.55-9.75-20.33,14.57-1.35,37.58-1.61,63.59,6.66,42.92,13.65,87.43,48.46,105.16,102.89,2.58,7.93,24.94,80.65-20.54,139.46-47.2,61.04-138.98,70.26-197.87,35.31-46.13-27.37-63.69-76.86-65.69-82.75C1.48,185.45.33,166.79.52,154.4c7.2,2.4,14.39,4.81,21.59,7.21.61,12.23,3.3,33.66,15.6,56.6,5.3,9.88,24.41,42.48,63.91,59.01,39.78,16.64,92.85,13.91,132.14-19.4,52.47-44.47,43.55-112.26,42.69-117.99-9.25-61.94-62.14-102.52-108.85-112.32-13.86-2.91-25.78-2.82-33.85-2.24Z"/><path class="b" d="M260.84,142.85c6.39,61.05-35.75,124.73-100.75,131.1-61.94,6.07-120.14-42.33-125.04-108.18,61.92,21.14,123.84,42.28,185.76,63.42-28.34-64.84-56.67-129.68-85.01-194.52,64.27-1.29,118.62,46.81,125.04,108.18Z"/><path class="b" d="M147.69,84.66c-3.51-19.22-11.53-33.48-17.28-42.01-14.57,7.32-40.35,22.68-62.68,51.6-19.6,25.38-28.07,49.09-32.03,64.28,7.5,2.3,15.01,4.59,22.51,6.89.09-2.84.34-6.36,1.02-10.42.37-2.2,2-11.33,9.02-25.61,3.34-6.78,8.39-15.74,15.91-25.51,29.39,14.16,54.79,17.23,62.82,6.89,4.44-5.72,2.82-14.6.72-26.12ZM128.73,97.52c-2.85,2.18-7.91,1.03-18.05-1.27-6.27-1.42-11.34-3.1-14.81-4.37,2.39-3.78,7.06-10.05,15.04-15.16,5.96-3.82,11.62-5.61,15.51-6.5,5.62,12.55,6.92,23.76,2.32,27.29Z"/><polygon class="b" points="163.65 122.24 105.44 183.32 165.58 205.13 170.39 196.51 137.03 183.89 147.07 171.81 170.77 186.05 178.78 177.59 157.78 164.4 164.41 155.79 179.26 172.19 188.92 167.19 163.65 122.24"/><path class="b" d="M86.53,112.44c8.9,4.24,21.03,8.9,35.92,11.6,10.64,1.93,20.17,2.4,28.05,2.25-5.9,4.97-11.8,9.94-17.7,14.91-2.96.55-7.09.99-11.96.54-4.76-.44-8.65-1.59-11.43-2.64-3.96,7.58-7.92,15.17-11.89,22.75,5.41,1.28,10.82,2.55,16.22,3.83-4.74,5.16-9.48,10.33-14.22,15.49-11.34-3.98-22.68-7.97-34.03-11.95.08-2.59.3-5.47.77-8.57.63-4.19,1.57-7.89,2.56-11.03,5.5,1.8,11.01,3.61,16.51,5.41l11.55-17.82c-3.08-.25-6.87-.82-11.08-2.04-4.05-1.18-7.44-2.66-10.11-4.05,1.48-3.21,3.25-6.66,5.37-10.26,1.82-3.09,3.67-5.89,5.47-8.41Z"/><path class="b" d="M8.82,131.1c1.17-4.12,2.72-8.68,4.8-13.54,2.65-6.18,5.58-11.46,8.35-15.82,2.6,1.81,5.19,3.61,7.79,5.42-.93,1.3-1.89,2.77-2.84,4.39-.94,1.62-1.74,3.18-2.41,4.63,2.65,1.55,5.36,3.2,8.12,4.95,3.36,2.13,6.56,4.27,9.6,6.38-.63,1.2-1.25,2.47-1.86,3.82-1.05,2.33-1.89,4.56-2.57,6.64-2.31-2.43-5.38-5.24-9.31-7.92-3-2.04-5.86-3.58-8.38-4.73-.61,1.32-1.22,2.71-1.8,4.16-.9,2.22-1.68,4.36-2.35,6.41l-7.14-4.81Z"/><path class="b" d="M29.2,90.93c8.08,5.16,16.16,10.32,24.23,15.48l4.64-6.65c-3.18-2.17-6.36-4.34-9.54-6.51,1.64-2.56,3.28-5.11,4.92-7.67,3.26,2.26,6.52,4.52,9.78,6.77,2.44-3.5,3.21-3.65,5.66-7.15-7.78-5.82-15.56-11.64-23.35-17.46-.42.49-.85,1-1.27,1.52-1.86,2.29-3.45,4.57-4.83,6.78,3.18,2.22,6.36,4.43,9.53,6.65-1.69,2.54-3.38,5.07-5.07,7.61-3.21-2.29-6.42-4.58-9.62-6.86-.82,1.19-1.64,2.38-2.45,3.58-.89,1.3-1.76,2.6-2.63,3.89Z"/><path class="b" d="M78.62,74.32c2.96-3.04,6.29-6.17,10.04-9.28,1.6-1.33,3.19-2.59,4.75-3.77l-4.47-4.2c-2.77,2.42-5.54,4.84-8.31,7.26-1.23-1.33-2.45-2.66-3.68-3.99,2.04-2.16,4.09-4.32,6.13-6.49-1.29-1.19-2.57-2.37-3.86-3.56-2.08,1.98-4.16,3.97-6.25,5.95-1.44-1.37-2.87-2.74-4.31-4.11,2.86-2.75,5.72-5.5,8.59-8.25-1.21-1.4-2.43-2.79-3.64-4.19-2.41,1.52-5.07,3.44-7.81,5.83-3.9,3.41-6.87,6.85-9.08,9.81,7.3,6.33,14.6,12.65,21.9,18.98Z"/></svg>