<?xml version="1.0" encoding="UTF-8"?><svg id="Layer_1" xmlns="http://www.w3.org/2000/svg" viewBox="0 0 421.11 421.11"><defs><style>.cls-1{fill:#efe5c3;}</style></defs><path class="cls-1" d="M70.19,0C31.7,0,0,31.7,0,70.19v280.74c0,38.48,31.7,70.19,70.19,70.19h280.74c38.48,0,70.19-31.7,70.19-70.19V70.19c0-38.48-31.7-70.19-70.19-70.19H70.19ZM210.56,93.58h46.79c0,23.51,34.41,46.79,46.79,46.79v46.79c-14.15,0-31.16-6.22-46.79-16.72v86.91c0,38.7-31.49,70.19-70.19,70.19s-70.19-31.49-70.19-70.19,31.49-70.19,70.19-70.19v46.79c-12.91,0-23.4,10.5-23.4,23.4s10.48,23.4,23.4,23.4,23.4-10.5,23.4-23.4V93.58Z"/></svg>